<mxfile host="app.diagrams.net" modified="2023-03-27T17:14:59.431Z" agent="Mozilla/5.0 (Windows NT 10.0; Win64; x64) AppleWebKit/537.36 (KHTML, like Gecko) Chrome/111.0.0.0 Safari/537.36" etag="WuDZ6M610tL_677jUWxs" version="21.1.1" type="github">
  <diagram name="Page-1" id="z5q8kBhyHN7ufiBEWdub">
    <mxGraphModel dx="2694" dy="1244" grid="1" gridSize="10" guides="1" tooltips="1" connect="1" arrows="1" fold="1" page="1" pageScale="1" pageWidth="850" pageHeight="1100" math="0" shadow="0">
      <root>
        <mxCell id="0" />
        <mxCell id="1" parent="0" />
        <mxCell id="m-E1qSqmqTbbukZaotH6-1" value="LED" style="rounded=0;whiteSpace=wrap;html=1;" parent="1" vertex="1">
          <mxGeometry x="-30" y="195" width="160" height="70" as="geometry" />
        </mxCell>
        <mxCell id="xKB4r4f-6FPHU7o6175q-2" style="edgeStyle=orthogonalEdgeStyle;rounded=0;orthogonalLoop=1;jettySize=auto;html=1;" edge="1" parent="1" source="m-E1qSqmqTbbukZaotH6-3">
          <mxGeometry relative="1" as="geometry">
            <mxPoint x="590" y="230" as="targetPoint" />
            <Array as="points">
              <mxPoint x="760" y="230" />
            </Array>
          </mxGeometry>
        </mxCell>
        <mxCell id="m-E1qSqmqTbbukZaotH6-3" value="Fingerprint sensor" style="rounded=0;whiteSpace=wrap;html=1;" parent="1" vertex="1">
          <mxGeometry x="700" y="300" width="120" height="60" as="geometry" />
        </mxCell>
        <mxCell id="xKB4r4f-6FPHU7o6175q-1" style="edgeStyle=orthogonalEdgeStyle;rounded=0;orthogonalLoop=1;jettySize=auto;html=1;exitX=0;exitY=0.5;exitDx=0;exitDy=0;entryX=1;entryY=0.5;entryDx=0;entryDy=0;" edge="1" parent="1" source="m-E1qSqmqTbbukZaotH6-6" target="m-E1qSqmqTbbukZaotH6-7">
          <mxGeometry relative="1" as="geometry" />
        </mxCell>
        <mxCell id="m-E1qSqmqTbbukZaotH6-6" value="Face Recognize Sensor" style="rounded=0;whiteSpace=wrap;html=1;" parent="1" vertex="1">
          <mxGeometry x="700" y="150" width="120" height="60" as="geometry" />
        </mxCell>
        <mxCell id="xKB4r4f-6FPHU7o6175q-4" style="edgeStyle=orthogonalEdgeStyle;rounded=0;orthogonalLoop=1;jettySize=auto;html=1;entryX=1;entryY=0.5;entryDx=0;entryDy=0;" edge="1" parent="1" source="m-E1qSqmqTbbukZaotH6-7" target="m-E1qSqmqTbbukZaotH6-9">
          <mxGeometry relative="1" as="geometry" />
        </mxCell>
        <mxCell id="m-E1qSqmqTbbukZaotH6-7" value="Raspberry Pi" style="rounded=0;whiteSpace=wrap;html=1;" parent="1" vertex="1">
          <mxGeometry x="470" y="200" width="120" height="60" as="geometry" />
        </mxCell>
        <mxCell id="xKB4r4f-6FPHU7o6175q-7" style="edgeStyle=orthogonalEdgeStyle;rounded=0;orthogonalLoop=1;jettySize=auto;html=1;entryX=1;entryY=0.5;entryDx=0;entryDy=0;" edge="1" parent="1" source="m-E1qSqmqTbbukZaotH6-9" target="m-E1qSqmqTbbukZaotH6-1">
          <mxGeometry relative="1" as="geometry" />
        </mxCell>
        <mxCell id="m-E1qSqmqTbbukZaotH6-9" value="bread board?" style="rounded=0;whiteSpace=wrap;html=1;" parent="1" vertex="1">
          <mxGeometry x="210" y="200" width="120" height="60" as="geometry" />
        </mxCell>
        <mxCell id="xKB4r4f-6FPHU7o6175q-3" value="MQTT&lt;br&gt;Communication" style="text;html=1;strokeColor=none;fillColor=none;align=center;verticalAlign=middle;whiteSpace=wrap;rounded=0;" vertex="1" parent="1">
          <mxGeometry x="630" y="230" width="60" height="30" as="geometry" />
        </mxCell>
        <mxCell id="xKB4r4f-6FPHU7o6175q-5" value="UART or I2C" style="text;html=1;strokeColor=none;fillColor=none;align=center;verticalAlign=middle;whiteSpace=wrap;rounded=0;" vertex="1" parent="1">
          <mxGeometry x="380" y="245" width="60" height="30" as="geometry" />
        </mxCell>
        <mxCell id="xKB4r4f-6FPHU7o6175q-8" value="UART or I2C" style="text;html=1;strokeColor=none;fillColor=none;align=center;verticalAlign=middle;whiteSpace=wrap;rounded=0;" vertex="1" parent="1">
          <mxGeometry x="140" y="190" width="60" height="30" as="geometry" />
        </mxCell>
        <mxCell id="xKB4r4f-6FPHU7o6175q-9" value="" style="endArrow=none;dashed=1;html=1;dashPattern=1 3;strokeWidth=2;rounded=0;fontStyle=1" edge="1" parent="1">
          <mxGeometry width="50" height="50" relative="1" as="geometry">
            <mxPoint x="690" y="370" as="sourcePoint" />
            <mxPoint x="690" y="110" as="targetPoint" />
          </mxGeometry>
        </mxCell>
        <mxCell id="xKB4r4f-6FPHU7o6175q-10" value="" style="endArrow=none;dashed=1;html=1;dashPattern=1 3;strokeWidth=2;rounded=0;fontStyle=1" edge="1" parent="1">
          <mxGeometry width="50" height="50" relative="1" as="geometry">
            <mxPoint x="840" y="370" as="sourcePoint" />
            <mxPoint x="840" y="110" as="targetPoint" />
          </mxGeometry>
        </mxCell>
        <mxCell id="xKB4r4f-6FPHU7o6175q-11" value="" style="endArrow=none;dashed=1;html=1;dashPattern=1 3;strokeWidth=2;rounded=0;" edge="1" parent="1">
          <mxGeometry width="50" height="50" relative="1" as="geometry">
            <mxPoint x="690" y="110" as="sourcePoint" />
            <mxPoint x="840" y="110" as="targetPoint" />
          </mxGeometry>
        </mxCell>
        <mxCell id="xKB4r4f-6FPHU7o6175q-12" value="" style="endArrow=none;dashed=1;html=1;dashPattern=1 3;strokeWidth=2;rounded=0;" edge="1" parent="1">
          <mxGeometry width="50" height="50" relative="1" as="geometry">
            <mxPoint x="690" y="370" as="sourcePoint" />
            <mxPoint x="840" y="370" as="targetPoint" />
          </mxGeometry>
        </mxCell>
        <mxCell id="xKB4r4f-6FPHU7o6175q-14" value="&lt;h1&gt;Sensors&lt;/h1&gt;&lt;div&gt;Both sensor will gather the information for the person who wants to unlocke the door, or turn the green LED light on.&lt;/div&gt;&lt;div&gt;&lt;br&gt;&lt;/div&gt;&lt;div&gt;After gathering the data, ML will be apply, current will use ANN for training data, but consider the application field, might change to Tensorflow.&lt;/div&gt;&lt;div&gt;&lt;br&gt;&lt;/div&gt;" style="text;html=1;strokeColor=none;fillColor=none;spacing=5;spacingTop=-20;whiteSpace=wrap;overflow=hidden;rounded=0;" vertex="1" parent="1">
          <mxGeometry x="690" y="390" width="190" height="210" as="geometry" />
        </mxCell>
        <mxCell id="xKB4r4f-6FPHU7o6175q-15" value="&lt;h1&gt;LEDs&lt;/h1&gt;&lt;div&gt;There are three LEDs which represent three states: Idle, Exam fail,&amp;nbsp;&lt;/div&gt;&lt;div&gt;&amp;nbsp;&lt;/div&gt;" style="text;html=1;strokeColor=none;fillColor=none;spacing=5;spacingTop=-20;whiteSpace=wrap;overflow=hidden;rounded=0;" vertex="1" parent="1">
          <mxGeometry x="-30" y="290" width="190" height="120" as="geometry" />
        </mxCell>
        <mxCell id="xKB4r4f-6FPHU7o6175q-16" value="" style="endArrow=classic;html=1;rounded=0;exitX=0.326;exitY=1.042;exitDx=0;exitDy=0;exitPerimeter=0;" edge="1" parent="1" source="xKB4r4f-6FPHU7o6175q-15" target="xKB4r4f-6FPHU7o6175q-17">
          <mxGeometry width="50" height="50" relative="1" as="geometry">
            <mxPoint x="330" y="670" as="sourcePoint" />
            <mxPoint x="30" y="510" as="targetPoint" />
          </mxGeometry>
        </mxCell>
        <mxCell id="xKB4r4f-6FPHU7o6175q-19" style="edgeStyle=orthogonalEdgeStyle;rounded=0;orthogonalLoop=1;jettySize=auto;html=1;entryX=0.5;entryY=0;entryDx=0;entryDy=0;" edge="1" parent="1" source="xKB4r4f-6FPHU7o6175q-17" target="xKB4r4f-6FPHU7o6175q-18">
          <mxGeometry relative="1" as="geometry" />
        </mxCell>
        <mxCell id="xKB4r4f-6FPHU7o6175q-17" value="Idle&lt;br&gt;Yellow Led light up" style="ellipse;whiteSpace=wrap;html=1;" vertex="1" parent="1">
          <mxGeometry x="-30" y="470" width="120" height="80" as="geometry" />
        </mxCell>
        <mxCell id="xKB4r4f-6FPHU7o6175q-22" style="edgeStyle=orthogonalEdgeStyle;rounded=0;orthogonalLoop=1;jettySize=auto;html=1;" edge="1" parent="1" source="xKB4r4f-6FPHU7o6175q-18" target="xKB4r4f-6FPHU7o6175q-20">
          <mxGeometry relative="1" as="geometry">
            <Array as="points">
              <mxPoint x="110" y="670" />
            </Array>
          </mxGeometry>
        </mxCell>
        <mxCell id="xKB4r4f-6FPHU7o6175q-23" style="edgeStyle=orthogonalEdgeStyle;rounded=0;orthogonalLoop=1;jettySize=auto;html=1;entryX=0.5;entryY=0;entryDx=0;entryDy=0;" edge="1" parent="1" source="xKB4r4f-6FPHU7o6175q-18" target="xKB4r4f-6FPHU7o6175q-21">
          <mxGeometry relative="1" as="geometry">
            <Array as="points">
              <mxPoint x="-90" y="670" />
            </Array>
          </mxGeometry>
        </mxCell>
        <mxCell id="xKB4r4f-6FPHU7o6175q-18" value="Identification" style="rounded=1;whiteSpace=wrap;html=1;" vertex="1" parent="1">
          <mxGeometry x="-30" y="640" width="120" height="60" as="geometry" />
        </mxCell>
        <mxCell id="xKB4r4f-6FPHU7o6175q-28" style="edgeStyle=orthogonalEdgeStyle;rounded=0;orthogonalLoop=1;jettySize=auto;html=1;entryX=0.5;entryY=0;entryDx=0;entryDy=0;" edge="1" parent="1" source="xKB4r4f-6FPHU7o6175q-20" target="xKB4r4f-6FPHU7o6175q-27">
          <mxGeometry relative="1" as="geometry" />
        </mxCell>
        <mxCell id="xKB4r4f-6FPHU7o6175q-20" value="Green Led light up" style="rounded=0;whiteSpace=wrap;html=1;" vertex="1" parent="1">
          <mxGeometry x="50" y="760" width="120" height="60" as="geometry" />
        </mxCell>
        <mxCell id="xKB4r4f-6FPHU7o6175q-26" style="edgeStyle=orthogonalEdgeStyle;rounded=0;orthogonalLoop=1;jettySize=auto;html=1;" edge="1" parent="1" source="xKB4r4f-6FPHU7o6175q-21" target="xKB4r4f-6FPHU7o6175q-27">
          <mxGeometry relative="1" as="geometry">
            <mxPoint x="-80" y="900" as="targetPoint" />
          </mxGeometry>
        </mxCell>
        <mxCell id="xKB4r4f-6FPHU7o6175q-21" value="Red Led light up" style="rounded=0;whiteSpace=wrap;html=1;" vertex="1" parent="1">
          <mxGeometry x="-150" y="760" width="120" height="60" as="geometry" />
        </mxCell>
        <mxCell id="xKB4r4f-6FPHU7o6175q-24" value="True" style="text;html=1;strokeColor=none;fillColor=none;align=center;verticalAlign=middle;whiteSpace=wrap;rounded=0;" vertex="1" parent="1">
          <mxGeometry x="110" y="690" width="60" height="30" as="geometry" />
        </mxCell>
        <mxCell id="xKB4r4f-6FPHU7o6175q-25" value="False" style="text;html=1;strokeColor=none;fillColor=none;align=center;verticalAlign=middle;whiteSpace=wrap;rounded=0;" vertex="1" parent="1">
          <mxGeometry x="-150" y="690" width="60" height="30" as="geometry" />
        </mxCell>
        <mxCell id="xKB4r4f-6FPHU7o6175q-30" style="edgeStyle=orthogonalEdgeStyle;rounded=0;orthogonalLoop=1;jettySize=auto;html=1;entryX=1;entryY=0.5;entryDx=0;entryDy=0;" edge="1" parent="1" source="xKB4r4f-6FPHU7o6175q-27" target="xKB4r4f-6FPHU7o6175q-17">
          <mxGeometry relative="1" as="geometry">
            <mxPoint x="250" y="690" as="targetPoint" />
            <Array as="points">
              <mxPoint x="250" y="890" />
              <mxPoint x="250" y="510" />
            </Array>
          </mxGeometry>
        </mxCell>
        <mxCell id="xKB4r4f-6FPHU7o6175q-27" value="Counting 30 sec&lt;br&gt;Led turns off" style="rounded=0;whiteSpace=wrap;html=1;" vertex="1" parent="1">
          <mxGeometry x="-60" y="860" width="120" height="60" as="geometry" />
        </mxCell>
        <mxCell id="xKB4r4f-6FPHU7o6175q-31" value="" style="curved=1;endArrow=classic;html=1;rounded=0;entryX=0.033;entryY=0.619;entryDx=0;entryDy=0;entryPerimeter=0;" edge="1" parent="1" target="xKB4r4f-6FPHU7o6175q-17">
          <mxGeometry width="50" height="50" relative="1" as="geometry">
            <mxPoint x="-20" y="570" as="sourcePoint" />
            <mxPoint x="210" y="620" as="targetPoint" />
            <Array as="points">
              <mxPoint x="-130" y="620" />
              <mxPoint x="-140" y="550" />
            </Array>
          </mxGeometry>
        </mxCell>
        <mxCell id="xKB4r4f-6FPHU7o6175q-32" value="No signal&amp;nbsp;" style="text;html=1;strokeColor=none;fillColor=none;align=center;verticalAlign=middle;whiteSpace=wrap;rounded=0;" vertex="1" parent="1">
          <mxGeometry x="-120" y="495" width="60" height="30" as="geometry" />
        </mxCell>
      </root>
    </mxGraphModel>
  </diagram>
</mxfile>
